# Blender v2.82 (sub 7) OBJ File: 'rocket.blend'
# www.blender.org
mtllib rocket.mtl
o Body_Plane
v -0.080587 -1.068964 -0.139580
v 0.000000 -0.503980 0.000000
v -0.142513 -1.091483 -0.246840
v -0.375933 0.088065 -0.651135
v -0.392514 1.678447 -0.679855
v -0.298229 2.659062 -0.516548
v 0.000000 2.659062 -0.000000
v -0.161173 -1.068964 0.000000
v 0.000000 -0.503980 0.000000
v -0.285027 -1.091483 0.000000
v -0.751866 0.088065 0.000000
v -0.785029 1.678447 0.000000
v -0.596458 2.659062 0.000000
v -0.000000 2.659062 -0.000000
v -0.080587 -1.068964 0.139580
v 0.000000 -0.503980 0.000000
v -0.142513 -1.091483 0.246841
v -0.375933 0.088065 0.651135
v -0.392514 1.678447 0.679855
v -0.298229 2.659062 0.516548
v -0.000000 2.659062 -0.000000
v 0.080587 -1.068964 0.139580
v 0.000000 -0.503980 0.000000
v 0.142513 -1.091483 0.246840
v 0.375933 0.088065 0.651135
v 0.392514 1.678447 0.679855
v 0.298229 2.659062 0.516548
v -0.000000 2.659062 0.000000
v 0.161173 -1.068964 -0.000000
v 0.000000 -0.503980 0.000000
v 0.285027 -1.091483 -0.000000
v 0.751866 0.088065 -0.000000
v 0.785029 1.678447 -0.000000
v 0.596458 2.659062 -0.000000
v 0.000000 2.659062 0.000000
v 0.080587 -1.068964 -0.139580
v 0.000000 -0.503980 0.000000
v 0.142513 -1.091483 -0.246840
v 0.375933 0.088065 -0.651135
v 0.392515 1.678447 -0.679855
v 0.298229 2.659062 -0.516548
v 0.000000 2.659062 0.000000
vt 0.000000 -0.503980
vt 0.166667 -0.503980
vt 0.166667 -1.068964
vt 0.000000 -1.068964
vt 0.333333 -0.503980
vt 0.333333 -1.068964
vt 0.500000 -0.503980
vt 0.500000 -1.068964
vt 0.666667 -0.503980
vt 0.666667 -1.068964
vt 0.833333 -0.503980
vt 0.833333 -1.068964
vt 1.000000 -0.503980
vt 1.000000 -1.068964
vt 0.166667 -1.091483
vt 0.000000 -1.091483
vt 0.333333 -1.091483
vt 0.500000 -1.091483
vt 0.666667 -1.091483
vt 0.833333 -1.091483
vt 1.000000 -1.091483
vt 0.166667 0.088065
vt 0.000000 0.088065
vt 0.333333 0.088065
vt 0.500000 0.088065
vt 0.666667 0.088065
vt 0.833333 0.088065
vt 1.000000 0.088065
vt 0.166667 1.678447
vt 0.000000 1.678447
vt 0.333333 1.678447
vt 0.500000 1.678447
vt 0.666667 1.678447
vt 0.833333 1.678447
vt 1.000000 1.678447
vt 0.166667 2.659062
vt 0.000000 2.659062
vt 0.333333 2.659062
vt 0.500000 2.659062
vt 0.666667 2.659062
vt 0.833333 2.659062
vt 1.000000 2.659062
vt 0.166667 2.659062
vt 0.000000 2.659062
vt 0.333333 2.659062
vt 0.500000 2.659062
vt 0.666667 2.659062
vt 0.833333 2.659062
vt 1.000000 2.659062
vn 0.8407 -0.2398 0.4854
vn 0.8407 -0.2398 -0.4854
vn 0.0000 -0.2398 -0.9708
vn -0.8407 -0.2398 -0.4854
vn -0.8407 -0.2398 0.4854
vn 0.0000 -0.2398 0.9708
vn 0.1779 -0.9787 0.1027
vn 0.1779 -0.9787 -0.1027
vn -0.0000 -0.9787 -0.2055
vn -0.1779 -0.9787 -0.1027
vn -0.1779 -0.9787 0.1027
vn -0.0000 -0.9787 0.2055
vn -0.8192 -0.3242 -0.4730
vn -0.8192 -0.3242 0.4730
vn 0.0000 -0.3242 0.9460
vn 0.8192 -0.3242 0.4730
vn 0.8192 -0.3242 -0.4730
vn 0.0000 -0.3242 -0.9460
vn -0.8659 -0.0181 -0.4999
vn -0.8659 -0.0181 0.4999
vn 0.0000 -0.0181 0.9998
vn 0.8659 -0.0181 0.4999
vn 0.8659 -0.0181 -0.4999
vn 0.0000 -0.0181 -0.9998
vn -0.8543 0.1643 -0.4932
vn -0.8543 0.1643 0.4932
vn 0.0000 0.1643 0.9864
vn 0.8543 0.1643 0.4932
vn 0.8543 0.1643 -0.4932
vn 0.0000 0.1643 -0.9864
vn 0.0000 1.0000 -0.0000
usemtl None
s off
f 2/1/1 9/2/1 8/3/1 1/4/1
f 9/2/2 16/5/2 15/6/2 8/3/2
f 16/5/3 23/7/3 22/8/3 15/6/3
f 23/7/4 30/9/4 29/10/4 22/8/4
f 30/9/5 37/11/5 36/12/5 29/10/5
f 37/11/6 2/13/6 1/14/6 36/12/6
f 1/4/7 8/3/7 10/15/7 3/16/7
f 8/3/8 15/6/8 17/17/8 10/15/8
f 15/6/9 22/8/9 24/18/9 17/17/9
f 22/8/10 29/10/10 31/19/10 24/18/10
f 29/10/11 36/12/11 38/20/11 31/19/11
f 36/12/12 1/14/12 3/21/12 38/20/12
f 3/16/13 10/15/13 11/22/13 4/23/13
f 10/15/14 17/17/14 18/24/14 11/22/14
f 17/17/15 24/18/15 25/25/15 18/24/15
f 24/18/16 31/19/16 32/26/16 25/25/16
f 31/19/17 38/20/17 39/27/17 32/26/17
f 38/20/18 3/21/18 4/28/18 39/27/18
f 4/23/19 11/22/19 12/29/19 5/30/19
f 11/22/20 18/24/20 19/31/20 12/29/20
f 18/24/21 25/25/21 26/32/21 19/31/21
f 25/25/22 32/26/22 33/33/22 26/32/22
f 32/26/23 39/27/23 40/34/23 33/33/23
f 39/27/24 4/28/24 5/35/24 40/34/24
f 5/30/25 12/29/25 13/36/25 6/37/25
f 12/29/26 19/31/26 20/38/26 13/36/26
f 19/31/27 26/32/27 27/39/27 20/38/27
f 26/32/28 33/33/28 34/40/28 27/39/28
f 33/33/29 40/34/29 41/41/29 34/40/29
f 40/34/30 5/35/30 6/42/30 41/41/30
f 6/37/31 13/36/31 14/43/31 7/44/31
f 13/36/31 20/38/31 21/45/31 14/43/31
f 20/38/31 27/39/31 28/46/31 21/45/31
f 27/39/31 34/40/31 35/47/31 28/46/31
f 34/40/31 41/41/31 42/48/31 35/47/31
f 41/41/31 6/42/31 7/49/31 42/48/31
o Tip_Cube.001
v -0.291229 2.645228 -0.504423
v -0.297952 2.661491 -0.516068
v -0.000000 2.645228 0.000000
v -0.192395 3.413058 -0.333238
v -0.000000 3.882576 0.000000
v -0.582458 2.645228 0.000000
v -0.595904 2.661491 0.000000
v 0.000000 2.645228 0.000000
v -0.384790 3.413058 0.000000
v 0.000000 3.882576 0.000000
v -0.291229 2.645228 0.504423
v -0.297952 2.661491 0.516068
v 0.000000 2.645228 0.000000
v -0.192395 3.413058 0.333238
v 0.000000 3.882576 0.000000
v 0.291229 2.645228 0.504423
v 0.297952 2.661491 0.516068
v 0.000000 2.645228 -0.000000
v 0.192395 3.413058 0.333238
v 0.000000 3.882576 -0.000000
v 0.582457 2.645228 -0.000000
v 0.595904 2.661491 -0.000000
v -0.000000 2.645228 -0.000000
v 0.384790 3.413058 -0.000000
v -0.000000 3.882576 -0.000000
v 0.291229 2.645228 -0.504423
v 0.297952 2.661491 -0.516068
v -0.000000 2.645228 -0.000000
v 0.192395 3.413058 -0.333238
v -0.000000 3.882576 -0.000000
vt 0.000000 2.661491
vt 0.000000 2.645228
vt 0.166667 2.645228
vt 0.166667 2.661491
vt 0.333333 2.645228
vt 0.333333 2.661491
vt 0.500000 2.645228
vt 0.500000 2.661491
vt 0.666667 2.645228
vt 0.666667 2.661491
vt 0.833333 2.645228
vt 0.833333 2.661491
vt 1.000000 2.645228
vt 1.000000 2.661491
vt 0.000000 2.645228
vt 0.166667 2.645228
vt 0.333333 2.645228
vt 0.500000 2.645228
vt 0.666667 2.645228
vt 0.833333 2.645228
vt 1.000000 2.645228
vt 0.000000 3.413058
vt 0.166667 3.413058
vt 0.333333 3.413058
vt 0.500000 3.413058
vt 0.666667 3.413058
vt 0.833333 3.413058
vt 1.000000 3.413058
vt 0.000000 3.882576
vt 0.166667 3.882576
vt 0.333333 3.882576
vt 0.500000 3.882576
vt 0.666667 3.882576
vt 0.833333 3.882576
vt 1.000000 3.882576
vn -0.7041 -0.5822 -0.4065
vn -0.7041 -0.5822 0.4065
vn 0.0000 -0.5822 0.8131
vn 0.7041 -0.5822 0.4065
vn 0.7041 -0.5822 -0.4065
vn 0.0000 -0.5822 -0.8131
vn 0.0000 -1.0000 0.0000
vn -0.8415 0.2364 -0.4858
vn -0.8415 0.2364 0.4858
vn 0.0000 0.2364 0.9717
vn 0.8415 0.2364 0.4858
vn 0.8415 0.2364 -0.4858
vn 0.0000 0.2364 -0.9717
vn -0.7062 0.5788 -0.4077
vn -0.7062 0.5788 0.4077
vn 0.0000 0.5788 0.8155
vn 0.7062 0.5788 0.4077
vn 0.7062 0.5788 -0.4077
vn 0.0000 0.5788 -0.8155
usemtl None
s off
f 44/50/32 43/51/32 48/52/32 49/53/32
f 49/53/33 48/52/33 53/54/33 54/55/33
f 54/55/34 53/54/34 58/56/34 59/57/34
f 59/57/35 58/56/35 63/58/35 64/59/35
f 64/59/36 63/58/36 68/60/36 69/61/36
f 69/61/37 68/60/37 43/62/37 44/63/37
f 43/51/38 45/64/38 50/65/38 48/52/38
f 48/52/38 50/65/38 55/66/38 53/54/38
f 53/54/38 55/66/38 60/67/38 58/56/38
f 58/56/38 60/67/38 65/68/38 63/58/38
f 63/58/38 65/68/38 70/69/38 68/60/38
f 68/60/38 70/69/38 45/70/38 43/62/38
f 46/71/39 44/50/39 49/53/39 51/72/39
f 51/72/40 49/53/40 54/55/40 56/73/40
f 56/73/41 54/55/41 59/57/41 61/74/41
f 61/74/42 59/57/42 64/59/42 66/75/42
f 66/75/43 64/59/43 69/61/43 71/76/43
f 71/76/44 69/61/44 44/63/44 46/77/44
f 47/78/45 46/71/45 51/72/45 52/79/45
f 52/79/46 51/72/46 56/73/46 57/80/46
f 57/80/47 56/73/47 61/74/47 62/81/47
f 62/81/48 61/74/48 66/75/48 67/82/48
f 67/82/49 66/75/49 71/76/49 72/83/49
f 72/83/50 71/76/50 46/77/50 47/84/50
o Fins_Cube.002
v 0.000000 -1.050050 -0.225643
v -0.059719 1.009266 -0.530718
v 0.000000 -2.322507 -1.291567
v -0.059719 -0.555963 -1.206280
v 0.000000 -1.050050 -0.225643
v 0.059719 1.009266 -0.530718
v 0.000000 -2.322507 -1.291567
v 0.059719 -0.555963 -1.206280
v -0.160023 0.163143 -0.610149
v -0.025011 -1.306877 -1.412656
v 0.025011 -1.306877 -1.412656
v 0.160023 0.163143 -0.610149
v -0.195413 -1.050050 0.112822
v -0.429755 1.009266 0.317077
v -1.118530 -2.322507 0.645784
v -1.014809 -0.555963 0.654858
v -0.195413 -1.050050 0.112822
v -0.489474 1.009266 0.213641
v -1.118530 -2.322507 0.645784
v -1.074528 -0.555963 0.551422
v -0.448393 0.163143 0.443658
v -1.210890 -1.306877 0.727988
v -1.235901 -1.306877 0.684668
v -0.608416 0.163143 0.166490
v 0.195413 -1.050050 0.112822
v 0.489474 1.009266 0.213641
v 1.118530 -2.322507 0.645784
v 1.074528 -0.555963 0.551422
v 0.195413 -1.050050 0.112822
v 0.429756 1.009266 0.317077
v 1.118530 -2.322507 0.645784
v 1.014809 -0.555963 0.654858
v 0.608416 0.163143 0.166490
v 1.235902 -1.306877 0.684668
v 1.210891 -1.306877 0.727988
v 0.448393 0.163143 0.443658
vt 0.543700 0.000000
vt 0.625000 0.000000
vt 0.625000 0.250000
vt 0.543700 0.250000
vt 0.625000 0.500000
vt 0.543700 0.500000
vt 0.625000 0.750000
vt 0.543700 0.750000
vt 0.625000 1.000000
vt 0.543700 1.000000
vt 0.125000 0.500000
vt 0.375000 0.500000
vt 0.375000 0.750000
vt 0.125000 0.750000
vt 0.875000 0.500000
vt 0.875000 0.750000
vt 0.375000 1.000000
vt 0.375000 0.250000
vt 0.375000 0.000000
vt 0.543700 0.000000
vt 0.625000 0.000000
vt 0.625000 0.250000
vt 0.543700 0.250000
vt 0.625000 0.500000
vt 0.543700 0.500000
vt 0.625000 0.750000
vt 0.543700 0.750000
vt 0.625000 1.000000
vt 0.543700 1.000000
vt 0.125000 0.500000
vt 0.375000 0.500000
vt 0.375000 0.750000
vt 0.125000 0.750000
vt 0.875000 0.500000
vt 0.875000 0.750000
vt 0.375000 1.000000
vt 0.375000 0.250000
vt 0.375000 0.000000
vt 0.543700 0.000000
vt 0.625000 0.000000
vt 0.625000 0.250000
vt 0.543700 0.250000
vt 0.625000 0.500000
vt 0.543700 0.500000
vt 0.625000 0.750000
vt 0.543700 0.750000
vt 0.625000 1.000000
vt 0.543700 1.000000
vt 0.125000 0.500000
vt 0.375000 0.500000
vt 0.375000 0.750000
vt 0.125000 0.750000
vt 0.875000 0.500000
vt 0.875000 0.750000
vt 0.375000 1.000000
vt 0.375000 0.250000
vt 0.375000 0.000000
vn -0.9599 0.0871 -0.2666
vn 0.0000 0.2650 -0.9642
vn 0.9599 0.0871 -0.2666
vn 0.0000 -0.0935 0.9956
vn 0.0000 0.0000 1.0000
vn 0.0000 0.3963 -0.9181
vn 0.0000 0.3021 0.9533
vn 0.9965 -0.0743 0.0371
vn 0.0000 -0.1184 -0.9930
vn -0.9965 -0.0743 0.0371
vn 0.2490 0.0871 0.9646
vn -0.8351 0.2650 0.4821
vn -0.7108 0.0871 -0.6979
vn 0.8622 -0.0935 -0.4978
vn -0.7951 0.3963 0.4591
vn 0.8256 0.3021 -0.4766
vn -0.4662 -0.0743 -0.8816
vn -0.8599 -0.1184 0.4965
vn 0.5304 -0.0743 0.8445
vn 0.7108 0.0871 -0.6979
vn 0.8351 0.2650 0.4821
vn -0.2490 0.0871 0.9646
vn -0.8622 -0.0935 -0.4978
vn 0.7951 0.3963 0.4591
vn -0.8256 0.3021 -0.4766
vn -0.5304 -0.0743 0.8445
vn 0.8599 -0.1184 0.4965
vn 0.4662 -0.0743 -0.8816
usemtl None
s off
f 81/85/51 74/86/51 76/87/51 82/88/51
f 82/88/52 76/87/52 80/89/52 83/90/52
f 83/90/53 80/89/53 78/91/53 84/92/53
f 84/92/54 78/91/54 74/93/54 81/94/54
f 75/95/55 79/96/55 77/97/55 73/98/55
f 80/89/56 76/99/56 74/100/56 78/91/56
f 77/97/57 84/92/57 81/94/57 73/101/57
f 79/96/58 83/90/58 84/92/58 77/97/58
f 75/102/59 82/88/59 83/90/59 79/96/59
f 73/103/60 81/85/60 82/88/60 75/102/60
f 93/104/61 86/105/61 88/106/61 94/107/61
f 94/107/62 88/106/62 92/108/62 95/109/62
f 95/109/63 92/108/63 90/110/63 96/111/63
f 96/111/64 90/110/64 86/112/64 93/113/64
f 87/114/55 91/115/55 89/116/55 85/117/55
f 92/108/65 88/118/65 86/119/65 90/110/65
f 89/116/66 96/111/66 93/113/66 85/120/66
f 91/115/67 95/109/67 96/111/67 89/116/67
f 87/121/68 94/107/68 95/109/68 91/115/68
f 85/122/69 93/104/69 94/107/69 87/121/69
f 105/123/70 98/124/70 100/125/70 106/126/70
f 106/126/71 100/125/71 104/127/71 107/128/71
f 107/128/72 104/127/72 102/129/72 108/130/72
f 108/130/73 102/129/73 98/131/73 105/132/73
f 99/133/55 103/134/55 101/135/55 97/136/55
f 104/127/74 100/137/74 98/138/74 102/129/74
f 101/135/75 108/130/75 105/132/75 97/139/75
f 103/134/76 107/128/76 108/130/76 101/135/76
f 99/140/77 106/126/77 107/128/77 103/134/77
f 97/141/78 105/123/78 106/126/78 99/140/78
