# Blender v2.81 (sub 16) OBJ File: 'shield.blend'
# www.blender.org
mtllib shield.mtl
o Icosphere_Icosphere.001
v -0.058541 -0.944721 0.042532
v -0.058540 -0.944721 -0.042532
v 0.022361 -0.944722 -0.068818
v 0.072360 -0.944721 0.000000
v 0.022361 -0.944721 0.068818
v 0.687420 -0.474854 0.446862
v 0.732141 -0.402494 0.446862
v 0.709781 -0.357772 0.515680
v 0.651240 -0.402494 0.558212
v 0.637421 -0.474854 0.515680
v -0.293468 -0.474854 0.765576
v -0.212567 -0.474854 0.791862
v -0.198747 -0.402494 0.834394
v -0.271107 -0.357772 0.834394
v -0.329648 -0.402493 0.791862
v -0.818802 -0.474854 -0.042532
v -0.818802 -0.474854 0.042532
v -0.854982 -0.402493 0.068818
v -0.877342 -0.357772 0.000000
v -0.854982 -0.402493 -0.068818
v -0.212567 -0.474854 -0.791862
v -0.293468 -0.474854 -0.765576
v -0.329648 -0.402493 -0.791862
v -0.271107 -0.357772 -0.834394
v -0.198747 -0.402494 -0.834394
v 0.732141 -0.402494 -0.446862
v 0.687420 -0.474854 -0.446862
v 0.637421 -0.474854 -0.515680
v 0.651240 -0.402494 -0.558212
v 0.709780 -0.357772 -0.515680
v 0.198747 0.402494 0.834394
v 0.271107 0.357772 0.834394
v 0.329648 0.402493 0.791862
v 0.293468 0.474854 0.765576
v 0.212567 0.474854 0.791862
v -0.732141 0.402494 0.446862
v -0.709781 0.357772 0.515680
v -0.651240 0.402494 0.558212
v -0.637421 0.474854 0.515680
v -0.687420 0.474854 0.446862
v -0.651240 0.402494 -0.558212
v -0.709780 0.357772 -0.515680
v -0.732141 0.402494 -0.446862
v -0.687420 0.474854 -0.446862
v -0.637421 0.474854 -0.515680
v 0.329648 0.402493 -0.791862
v 0.271107 0.357772 -0.834394
v 0.198747 0.402494 -0.834394
v 0.212567 0.474854 -0.791862
v 0.293468 0.474854 -0.765576
v 0.854982 0.402493 0.068818
v 0.877342 0.357772 0.000000
v 0.854982 0.402493 -0.068818
v 0.818802 0.474854 -0.042532
v 0.818802 0.474854 0.042532
v -0.022361 0.944721 0.068818
v 0.058541 0.944721 0.042532
v 0.058540 0.944721 -0.042532
v -0.022361 0.944722 -0.068818
v -0.072360 0.944721 0.000000
v 0.020417 -0.862595 0.062835
v -0.053451 -0.862595 0.038835
v -0.053451 -0.862595 -0.038835
v 0.020417 -0.862595 -0.062835
v 0.066070 -0.862595 -0.000000
v 0.582008 -0.433574 0.470851
v 0.627661 -0.433574 0.408015
v 0.668494 -0.367504 0.408015
v 0.648078 -0.326670 0.470851
v 0.594626 -0.367504 0.509685
v -0.300991 -0.367504 0.723024
v -0.267956 -0.433574 0.699023
v -0.194088 -0.433574 0.723024
v -0.181470 -0.367504 0.761858
v -0.247539 -0.326670 0.761858
v -0.780656 -0.367504 -0.062835
v -0.747621 -0.433574 -0.038835
v -0.747621 -0.433574 0.038835
v -0.780656 -0.367504 0.062835
v -0.801073 -0.326670 0.000000
v -0.181470 -0.367504 -0.761858
v -0.194088 -0.433574 -0.723024
v -0.267956 -0.433574 -0.699023
v -0.300991 -0.367504 -0.723024
v -0.247539 -0.326670 -0.761858
v 0.648078 -0.326670 -0.470851
v 0.668494 -0.367504 -0.408015
v 0.627661 -0.433574 -0.408015
v 0.582008 -0.433574 -0.470851
v 0.594626 -0.367504 -0.509685
v 0.194088 0.433574 0.723024
v 0.181470 0.367504 0.761858
v 0.247539 0.326670 0.761858
v 0.300991 0.367504 0.723024
v 0.267956 0.433574 0.699023
v -0.627661 0.433574 0.408015
v -0.668494 0.367504 0.408015
v -0.648078 0.326670 0.470851
v -0.594626 0.367504 0.509685
v -0.582008 0.433574 0.470851
v -0.582008 0.433574 -0.470851
v -0.594626 0.367504 -0.509685
v -0.648078 0.326670 -0.470851
v -0.668494 0.367504 -0.408015
v -0.627661 0.433574 -0.408015
v 0.267956 0.433574 -0.699023
v 0.300991 0.367504 -0.723024
v 0.247539 0.326670 -0.761858
v 0.181470 0.367504 -0.761858
v 0.194088 0.433574 -0.723024
v 0.747621 0.433574 0.038835
v 0.780656 0.367504 0.062835
v 0.801073 0.326670 0.000000
v 0.780656 0.367504 -0.062835
v 0.747621 0.433574 -0.038835
v -0.066070 0.862595 -0.000000
v -0.020417 0.862595 0.062835
v 0.053451 0.862595 0.038835
v 0.053451 0.862595 -0.038835
v -0.020417 0.862595 -0.062835
vt 0.370454 0.145651
vt 0.454545 0.015746
vt 0.377272 0.149588
vt 0.013636 0.165334
vt 0.168182 0.149588
vt 0.168182 0.165334
vt 0.188636 0.145651
vt 0.272727 0.015746
vt 0.195454 0.149588
vt 0.461363 0.011810
vt 0.531818 0.149588
vt 0.559090 0.149588
vt 0.713636 0.165334
vt 0.559090 0.165334
vt 0.740908 0.165334
vt 0.895454 0.149588
vt 0.895454 0.165334
vt 0.636363 0.015746
vt 0.720454 0.145651
vt 0.713636 0.149588
vt 0.006818 0.145651
vt 0.090909 0.015746
vt 0.013636 0.149588
vt 0.915908 0.460572
vt 0.909958 0.470878
vt 0.908222 0.470878
vt 0.649999 0.314921
vt 0.638099 0.314921
vt 0.637231 0.313417
vt 0.468181 0.314921
vt 0.456281 0.314921
vt 0.455413 0.313417
vt 0.286363 0.314921
vt 0.274463 0.314921
vt 0.273595 0.313417
vt 0.104545 0.314921
vt 0.092645 0.314921
vt 0.091777 0.313417
vt 0.831817 0.314921
vt 0.819917 0.314921
vt 0.819049 0.313417
vt 0.546322 0.158965
vt 0.547190 0.157461
vt 0.559090 0.157461
vt 0.377272 0.157461
vt 0.364504 0.155957
vt 0.195454 0.157461
vt 0.182686 0.155957
vt 0.013636 0.157461
vt 0.001736 0.157461
vt 0.000868 0.155958
vt 0.726404 0.155957
vt 0.725536 0.157461
vt 0.713636 0.157461
vt 0.091777 0.001504
vt 0.090041 0.001504
vt 0.084091 0.011810
vt 0.713636 0.157461
vt 0.725536 0.157461
vt 0.726404 0.155957
vt 0.000868 0.155958
vt 0.001736 0.157461
vt 0.013636 0.157461
vt 0.182686 0.155957
vt 0.183554 0.157461
vt 0.195454 0.157461
vt 0.364504 0.155957
vt 0.365372 0.157461
vt 0.377272 0.157461
vt 0.559090 0.157461
vt 0.547190 0.157461
vt 0.546322 0.158965
vt 0.824999 0.303111
vt 0.819049 0.313417
vt 0.819917 0.314921
vt 0.091777 0.313417
vt 0.092645 0.314921
vt 0.104545 0.314921
vt 0.279545 0.303111
vt 0.273595 0.313417
vt 0.274463 0.314921
vt 0.455413 0.313417
vt 0.456281 0.314921
vt 0.468181 0.314921
vt 0.643181 0.303111
vt 0.637231 0.313417
vt 0.638099 0.314921
vt 0.902272 0.460572
vt 0.908222 0.470878
vt 0.909958 0.470878
vt 0.090909 0.015746
vt 0.006818 0.145651
vt 0.013636 0.149588
vt 0.636363 0.015746
vt 0.720454 0.145651
vt 0.643181 0.011810
vt 0.740908 0.165334
vt 0.895454 0.149588
vt 0.740908 0.149588
vt 0.713636 0.165334
vt 0.559090 0.149588
vt 0.559090 0.165334
vt 0.531818 0.149588
vt 0.461363 0.011810
vt 0.454545 0.015746
vt 0.272727 0.015746
vt 0.188636 0.145651
vt 0.195454 0.149588
vt 0.013636 0.165334
vt 0.168182 0.149588
vt 0.370454 0.145651
vt 0.377272 0.149588
vt 0.350000 0.165334
vt 0.195454 0.165334
vt 0.531818 0.165334
vt 0.377272 0.165334
vt 0.727272 0.173207
vt 0.636363 0.299175
vt 0.649999 0.307048
vt 0.545454 0.173207
vt 0.909090 0.173207
vt 0.818181 0.299175
vt 0.831817 0.307048
vt 0.181818 0.173207
vt 0.090909 0.299175
vt 0.104545 0.307048
vt 0.993182 0.303111
vt 0.915908 0.169270
vt 0.363636 0.173207
vt 0.272727 0.299175
vt 0.286363 0.307048
vt 0.454545 0.299175
vt 0.468181 0.307048
vt 0.649999 0.322794
vt 0.804545 0.307048
vt 0.831817 0.322794
vt 0.986364 0.307048
vt 0.259091 0.322794
vt 0.104545 0.322794
vt 0.440909 0.322794
vt 0.286363 0.322794
vt 0.622727 0.322794
vt 0.468181 0.322794
vt 0.909090 0.456636
vt 0.824999 0.326731
vt 0.545454 0.456636
vt 0.629545 0.326731
vt 0.181818 0.456636
vt 0.097727 0.326731
vt 0.175000 0.460572
vt 0.356818 0.460572
vt 0.363636 0.456636
vt 0.538636 0.460572
vt 0.084091 0.011810
vt 0.091777 0.001504
vt 0.097727 0.011810
vt 0.350000 0.165334
vt 0.195454 0.165334
vt 0.531818 0.165334
vt 0.377272 0.165334
vt 0.636363 0.299175
vt 0.727272 0.173207
vt 0.649999 0.307048
vt 0.545454 0.173207
vt 0.622727 0.307048
vt 0.818181 0.299175
vt 0.909090 0.173207
vt 0.831817 0.307048
vt 0.804545 0.307048
vt 0.090909 0.299175
vt 0.181818 0.173207
vt 0.104545 0.307048
vt 0.993182 0.303111
vt 0.986364 0.307048
vt 0.272727 0.299175
vt 0.363636 0.173207
vt 0.286363 0.307048
vt 0.259091 0.307048
vt 0.454545 0.299175
vt 0.468181 0.307048
vt 0.440909 0.307048
vt 0.649999 0.322794
vt 0.804545 0.322794
vt 0.831817 0.322794
vt 0.986364 0.322794
vt 0.259091 0.322794
vt 0.104545 0.322794
vt 0.440909 0.322794
vt 0.286363 0.322794
vt 0.622727 0.322794
vt 0.468181 0.322794
vt 0.902272 0.460572
vt 0.909090 0.456636
vt 0.629545 0.326731
vt 0.545454 0.456636
vt 0.181818 0.456636
vt 0.097727 0.326731
vt 0.356818 0.460572
vt 0.363636 0.456636
vt 0.461363 0.326731
vt 0.804545 0.322794
vt 0.447727 0.011810
vt 0.447727 0.011810
vt 0.986364 0.322794
vt 0.350000 0.149588
vt 0.259091 0.307048
vt 0.440909 0.307048
vt 0.622727 0.307048
vt 0.895454 0.165334
vt 0.552272 0.460572
vt 0.552272 0.460572
vt 0.713636 0.149588
vt 0.175000 0.460572
vt 0.168182 0.165334
vt 0.643181 0.011810
vt 0.279545 0.326730
vt 0.740908 0.149588
vt 0.461363 0.326731
vt 0.538636 0.460572
vt 0.538636 0.145651
vt 0.265909 0.011810
vt 0.265909 0.011810
vt 0.538636 0.145651
vt 0.643181 0.303111
vt 0.461363 0.303111
vt 0.279545 0.303111
vt 0.097727 0.303111
vt 0.824999 0.303111
vt 0.552272 0.169271
vt 0.365372 0.157461
vt 0.183554 0.157461
vt 0.097727 0.011810
vt 0.552272 0.169271
vt 0.831817 0.314921
vt 0.097727 0.303111
vt 0.286363 0.314921
vt 0.461363 0.303111
vt 0.649999 0.314921
vt 0.915908 0.460572
vt 0.090041 0.001504
vt 0.350000 0.149588
vt 0.915908 0.169270
vt 0.824999 0.326731
vt 0.279545 0.326730
vn 0.1625 0.8506 0.5000
vn 0.6882 0.5257 -0.5000
vn 0.5257 0.8507 0.0000
vn -0.4253 0.8506 0.3090
vn -0.8507 0.5257 0.0000
vn -0.2629 0.5257 -0.8090
vn -0.4253 0.8506 -0.3090
vn 0.1625 0.8506 -0.5000
vn -0.0000 -1.0000 -0.0000
vn -0.8944 -0.4472 0.0000
vn -0.2764 -0.4472 0.8507
vn 0.7236 -0.4472 0.5257
vn 0.7236 -0.4472 -0.5257
vn -0.2764 -0.4472 -0.8507
vn -0.7236 0.4472 0.5257
vn 0.2764 0.4472 0.8507
vn 0.8944 0.4472 -0.0000
vn 0.2764 0.4472 -0.8507
vn -0.7236 0.4472 -0.5257
vn 0.0000 1.0000 0.0000
vn -0.1625 -0.8506 0.5000
vn 0.4253 -0.8506 0.3090
vn 0.2629 -0.5257 0.8090
vn 0.8507 -0.5257 0.0000
vn 0.4253 -0.8506 -0.3090
vn -0.5257 -0.8507 0.0000
vn -0.6882 -0.5257 0.5000
vn -0.1625 -0.8506 -0.5000
vn -0.6882 -0.5257 -0.5000
vn 0.2629 -0.5257 -0.8090
vn 0.9511 -0.0000 0.3090
vn 0.9511 -0.0000 -0.3090
vn -0.0000 0.0000 1.0000
vn 0.5878 -0.0000 0.8090
vn -0.9511 0.0000 0.3090
vn -0.5878 0.0000 0.8090
vn -0.5878 0.0000 -0.8090
vn -0.9511 0.0000 -0.3090
vn 0.5878 -0.0000 -0.8090
vn 0.0000 0.0000 -1.0000
vn 0.6882 0.5257 0.5000
vn -0.2629 0.5257 0.8090
vn -0.4598 0.8228 -0.3341
vn 0.9581 0.0433 -0.2832
vn 0.3897 -0.8763 0.2832
vn -0.9416 0.0433 0.3341
vn 0.1756 0.8228 -0.5405
vn -0.3897 0.8763 -0.2832
vn -0.1489 -0.8763 0.4582
vn 0.4598 -0.8228 0.3341
vn 0.5684 0.8228 0.0000
vn 0.1489 0.8763 -0.4582
vn -0.4817 -0.8763 0.0000
vn -0.1756 -0.8228 0.5405
vn 0.1756 0.8228 0.5405
vn -0.3109 0.5250 0.7922
vn -0.1489 -0.8763 -0.4582
vn 0.2141 -0.5250 -0.8237
vn -0.4598 0.8228 0.3341
vn -0.3109 0.5250 -0.7922
vn 0.3897 -0.8763 -0.2832
vn 0.2141 -0.5250 0.8237
vn -0.9581 -0.0433 0.2832
vn -0.8496 0.5250 -0.0509
vn 0.9416 -0.0433 -0.3341
vn 0.8496 -0.5250 -0.0509
vn -0.0268 -0.0433 -0.9987
vn 0.6574 0.5250 -0.5405
vn -0.9416 0.0433 -0.3341
vn -0.0268 -0.0433 0.9987
vn -0.7172 -0.5250 0.4582
vn 0.9581 0.0433 0.2832
vn -0.5654 -0.0433 -0.8237
vn -0.2141 0.5250 -0.8237
vn 0.5654 0.0433 -0.8237
vn 0.6087 -0.0433 0.7922
vn 0.3109 -0.5250 0.7922
vn -0.6087 0.0433 0.7922
vn 0.6087 -0.0433 -0.7922
vn 0.7172 0.5250 0.4582
vn 0.1489 0.8763 0.4582
vn -0.5654 -0.0433 0.8237
vn -0.6574 -0.5250 -0.5405
vn -0.1756 -0.8228 -0.5405
vn 0.9416 -0.0433 0.3341
vn 0.7172 0.5250 -0.4582
vn 0.4817 0.8763 0.0000
vn -0.9581 -0.0433 -0.2832
vn -0.6574 -0.5250 0.5405
vn -0.5684 -0.8228 0.0000
vn -0.2141 0.5250 0.8237
vn -0.6087 0.0433 -0.7922
vn 0.3109 -0.5250 -0.7922
vn 0.5654 0.0433 0.8237
vn 0.6574 0.5250 0.5405
vn 0.0268 0.0433 -0.9987
vn -0.7172 -0.5250 -0.4582
vn 0.0268 0.0433 0.9987
vn -0.8496 0.5250 0.0509
vn -0.3897 0.8763 0.2832
vn 0.8496 -0.5250 0.0509
vn 0.4598 -0.8228 -0.3341
usemtl None
s off
f 83/1/1 64/2/1 82/3/1
f 71/4/2 78/5/2 79/6/2
f 78/7/3 63/8/3 77/9/3
f 65/10/4 89/11/4 64/2/4
f 88/12/5 68/13/5 87/14/5
f 70/15/6 73/16/6 74/17/6
f 65/18/7 66/19/7 67/20/7
f 73/21/8 62/22/8 72/23/8
f 116/24/9 120/25/9 119/26/9
f 111/27/10 115/28/10 114/29/10
f 106/30/11 110/31/11 109/32/11
f 101/33/12 105/34/12 104/35/12
f 96/36/13 100/37/13 99/38/13
f 91/39/14 95/40/14 94/41/14
f 90/42/15 89/43/15 88/44/15
f 81/45/16 84/46/16 83/1/16
f 76/47/17 79/48/17 78/7/17
f 71/49/18 75/50/18 74/51/18
f 70/52/19 69/53/19 68/54/19
f 3/55/9 4/56/9 5/57/9
f 7/58/12 8/59/12 9/60/12
f 13/61/11 14/62/11 15/63/11
f 18/64/10 19/65/10 20/66/10
f 23/67/14 24/68/14 25/69/14
f 27/70/13 28/71/13 29/72/13
f 32/73/16 33/74/16 34/75/16
f 38/76/15 39/77/15 40/78/15
f 42/79/19 43/80/19 44/81/19
f 48/82/18 49/83/18 50/84/18
f 52/85/17 53/86/17 54/87/17
f 57/88/20 58/89/20 59/90/20
f 1/91/21 12/92/21 11/93/21
f 4/94/22 10/95/22 5/96/22
f 9/97/23 12/98/23 10/99/23
f 7/100/24 27/101/24 26/102/24
f 28/103/25 4/104/25 3/105/25
f 2/106/26 17/107/26 16/108/26
f 15/109/27 17/110/27 11/93/27
f 3/105/28 22/111/28 21/112/28
f 23/113/29 16/108/29 20/114/29
f 29/115/30 21/112/30 25/116/30
f 8/117/31 52/118/31 51/119/31
f 30/120/32 52/118/32 26/102/32
f 14/121/33 32/122/33 31/123/33
f 8/117/34 32/122/34 9/97/34
f 19/124/35 37/125/35 36/126/35
f 14/121/36 37/127/36 15/128/36
f 24/129/37 42/130/37 41/131/37
f 19/124/38 42/130/38 20/114/38
f 30/120/39 47/132/39 46/133/39
f 24/129/40 47/132/40 25/116/40
f 55/134/41 33/135/41 51/119/41
f 35/136/42 38/137/42 31/123/42
f 44/138/5 36/126/5 40/139/5
f 49/140/6 41/131/6 45/141/6
f 54/142/2 46/133/2 50/143/2
f 56/144/1 34/145/1 57/88/1
f 58/146/3 55/147/3 54/142/3
f 60/148/4 39/149/4 56/150/4
f 45/141/7 60/151/7 59/152/7
f 50/143/8 59/153/8 58/146/8
f 61/154/20 64/155/20 63/156/20
f 77/9/41 84/157/41 76/158/41
f 82/3/42 90/159/42 81/160/42
f 113/161/38 69/162/38 112/163/38
f 86/164/35 113/161/35 114/165/35
f 93/166/40 75/167/40 92/168/40
f 69/162/37 93/166/37 94/169/37
f 98/170/32 80/171/32 97/172/32
f 75/167/39 98/173/39 99/174/39
f 103/175/34 85/176/34 102/177/34
f 80/171/31 103/175/31 104/178/31
f 108/179/36 86/164/36 107/180/36
f 85/176/33 108/179/33 109/181/33
f 111/182/29 94/169/29 95/183/29
f 91/184/30 99/174/30 100/185/30
f 97/172/24 105/186/24 96/187/24
f 102/177/23 110/188/23 101/189/23
f 107/180/27 115/190/27 106/191/27
f 118/192/28 91/184/28 117/193/28
f 111/194/26 119/195/26 115/190/26
f 116/196/25 100/197/25 96/187/25
f 116/198/22 101/189/22 120/199/22
f 119/195/21 110/200/21 106/191/21
f 111/182/43 34/201/43 55/134/43
f 21/112/44 64/2/44 3/105/44
f 33/135/45 112/163/45 51/119/45
f 63/202/46 22/111/46 2/203/46
f 35/136/47 100/185/47 39/204/47
f 76/158/48 23/113/48 20/114/48
f 38/137/49 92/168/49 31/123/49
f 22/205/50 77/9/50 16/108/50
f 96/187/51 44/138/51 40/139/51
f 81/160/52 29/115/52 25/116/52
f 104/178/53 36/126/53 43/206/53
f 89/11/54 21/112/54 28/103/54
f 101/189/55 49/140/55 45/141/55
f 112/163/56 8/117/56 51/119/56
f 109/181/57 41/131/57 48/207/57
f 7/100/58 113/161/58 52/118/58
f 50/143/59 115/190/59 54/142/59
f 30/120/60 114/165/60 53/208/60
f 114/165/61 46/133/61 53/208/61
f 113/161/62 26/102/62 52/118/62
f 117/193/63 35/136/63 56/144/63
f 92/168/64 14/121/64 31/123/64
f 34/145/65 118/192/65 57/88/65
f 74/17/66 32/122/66 13/209/66
f 115/190/67 58/146/67 54/142/67
f 69/162/68 33/135/68 8/117/68
f 11/93/69 62/22/69 1/91/69
f 118/210/70 55/147/70 57/211/70
f 93/166/71 9/97/71 32/122/71
f 61/154/72 12/92/72 5/57/72
f 116/196/73 40/139/73 60/148/73
f 36/126/74 80/171/74 19/124/74
f 65/18/75 6/212/75 4/94/75
f 39/149/76 117/213/76 56/150/76
f 79/6/77 37/125/77 18/214/77
f 10/95/78 61/215/78 5/96/78
f 120/199/79 45/141/79 59/152/79
f 75/167/80 38/137/80 14/121/80
f 9/97/81 74/17/81 13/209/81
f 44/216/82 116/198/82 60/151/82
f 98/173/83 15/128/83 37/127/83
f 12/98/84 66/217/84 10/99/84
f 119/195/85 50/143/85 58/146/85
f 102/177/86 24/129/86 41/131/86
f 87/14/87 7/100/87 26/102/87
f 49/218/88 120/219/88 59/153/88
f 23/113/89 103/175/89 42/130/89
f 67/20/90 27/101/90 6/212/90
f 80/171/91 43/206/91 19/124/91
f 64/2/92 28/103/92 3/105/92
f 42/130/93 76/158/93 20/114/93
f 27/220/94 65/10/94 4/104/94
f 46/133/95 86/164/95 30/120/95
f 77/9/96 2/106/96 16/108/96
f 90/159/97 47/132/97 29/115/97
f 62/221/98 17/107/98 1/222/98
f 24/129/99 109/181/99 48/207/99
f 15/109/100 79/6/100 18/214/100
f 47/132/101 81/160/101 25/116/101
f 78/5/102 11/93/102 17/110/102
f 83/1/1 63/202/1 64/2/1
f 71/4/2 72/23/2 78/5/2
f 78/7/3 62/221/3 63/8/3
f 65/10/4 88/223/4 89/11/4
f 88/12/5 67/20/5 68/13/5
f 70/15/6 66/217/6 73/16/6
f 65/18/7 61/215/7 66/19/7
f 73/21/8 61/154/8 62/22/8
f 118/192/9 117/193/9 119/26/9
f 117/193/9 116/24/9 119/26/9
f 113/224/10 112/163/10 114/29/10
f 112/163/10 111/27/10 114/29/10
f 108/225/11 107/180/11 109/32/11
f 107/180/11 106/30/11 109/32/11
f 103/226/12 102/177/12 104/35/12
f 102/177/12 101/33/12 104/35/12
f 98/227/13 97/172/13 99/38/13
f 97/172/13 96/36/13 99/38/13
f 93/228/14 92/168/14 94/41/14
f 92/168/14 91/39/14 94/41/14
f 88/44/15 87/14/15 86/229/15
f 86/229/15 90/42/15 88/44/15
f 83/1/16 82/3/16 81/45/16
f 81/45/16 85/230/16 84/46/16
f 78/7/17 77/9/17 76/47/17
f 76/47/17 80/231/17 79/48/17
f 73/21/18 72/23/18 74/51/18
f 72/23/18 71/49/18 74/51/18
f 68/54/19 67/20/19 66/19/19
f 66/19/19 70/52/19 68/54/19
f 5/57/9 1/91/9 2/232/9
f 2/232/9 3/55/9 5/57/9
f 10/95/12 6/212/12 9/60/12
f 6/212/12 7/58/12 9/60/12
f 15/63/11 11/93/11 12/92/11
f 12/92/11 13/61/11 15/63/11
f 20/66/10 16/108/10 17/107/10
f 17/107/10 18/64/10 20/66/10
f 25/69/14 21/112/14 22/111/14
f 22/111/14 23/67/14 25/69/14
f 30/233/13 26/102/13 29/72/13
f 26/102/13 27/70/13 29/72/13
f 35/234/16 31/123/16 34/75/16
f 31/123/16 32/73/16 34/75/16
f 40/78/15 36/126/15 37/235/15
f 37/235/15 38/76/15 40/78/15
f 45/236/19 41/131/19 44/81/19
f 41/131/19 42/79/19 44/81/19
f 50/84/18 46/133/18 47/237/18
f 47/237/18 48/82/18 50/84/18
f 55/238/17 51/119/17 54/87/17
f 51/119/17 52/85/17 54/87/17
f 60/239/20 56/144/20 59/90/20
f 56/144/20 57/88/20 59/90/20
f 1/91/21 5/57/21 12/92/21
f 4/94/22 6/212/22 10/95/22
f 9/97/23 13/209/23 12/98/23
f 7/100/24 6/212/24 27/101/24
f 28/103/25 27/220/25 4/104/25
f 2/106/26 1/222/26 17/107/26
f 15/109/27 18/214/27 17/110/27
f 3/105/28 2/203/28 22/111/28
f 23/113/29 22/205/29 16/108/29
f 29/115/30 28/103/30 21/112/30
f 8/117/31 7/100/31 52/118/31
f 30/120/32 53/208/32 52/118/32
f 14/121/33 13/209/33 32/122/33
f 8/117/34 33/135/34 32/122/34
f 19/124/35 18/214/35 37/125/35
f 14/121/36 38/137/36 37/127/36
f 24/129/37 23/113/37 42/130/37
f 19/124/38 43/206/38 42/130/38
f 30/120/39 29/115/39 47/132/39
f 24/129/40 48/207/40 47/132/40
f 55/134/41 34/201/41 33/135/41
f 35/136/42 39/204/42 38/137/42
f 44/138/5 43/206/5 36/126/5
f 49/140/6 48/207/6 41/131/6
f 54/142/2 53/208/2 46/133/2
f 56/144/1 35/136/1 34/145/1
f 58/146/3 57/211/3 55/147/3
f 60/148/4 40/139/4 39/149/4
f 45/141/7 44/216/7 60/151/7
f 50/143/8 49/218/8 59/153/8
f 63/156/20 62/22/20 61/154/20
f 61/154/20 65/240/20 64/155/20
f 77/9/41 83/241/41 84/157/41
f 82/3/42 89/11/42 90/159/42
f 113/161/38 68/13/38 69/162/38
f 86/164/35 87/14/35 113/161/35
f 93/166/40 74/17/40 75/167/40
f 69/162/37 70/15/37 93/166/37
f 98/170/32 79/6/32 80/171/32
f 75/167/39 71/242/39 98/173/39
f 103/175/34 84/157/34 85/176/34
f 80/171/31 76/158/31 103/175/31
f 108/179/36 90/159/36 86/164/36
f 85/176/33 81/160/33 108/179/33
f 111/182/29 112/163/29 94/169/29
f 91/184/30 92/168/30 99/174/30
f 97/172/24 104/178/24 105/186/24
f 102/177/23 109/181/23 110/188/23
f 107/180/27 114/165/27 115/190/27
f 118/192/28 95/243/28 91/184/28
f 111/194/26 118/210/26 119/195/26
f 116/196/25 117/213/25 100/197/25
f 116/198/22 105/244/22 101/189/22
f 119/195/21 120/219/21 110/200/21
f 111/182/43 95/183/43 34/201/43
f 21/112/44 82/3/44 64/2/44
f 33/135/45 94/169/45 112/163/45
f 63/202/46 83/1/46 22/111/46
f 35/136/47 91/184/47 100/185/47
f 76/158/48 84/157/48 23/113/48
f 38/137/49 99/174/49 92/168/49
f 22/205/50 83/241/50 77/9/50
f 96/187/51 105/186/51 44/138/51
f 81/160/52 90/159/52 29/115/52
f 104/178/53 97/172/53 36/126/53
f 89/11/54 82/3/54 21/112/54
f 101/189/55 110/188/55 49/140/55
f 112/163/56 69/162/56 8/117/56
f 109/181/57 102/177/57 41/131/57
f 7/100/58 68/13/58 113/161/58
f 50/143/59 106/191/59 115/190/59
f 30/120/60 86/164/60 114/165/60
f 114/165/61 107/180/61 46/133/61
f 113/161/62 87/14/62 26/102/62
f 117/193/63 91/184/63 35/136/63
f 92/168/64 75/167/64 14/121/64
f 34/145/65 95/243/65 118/192/65
f 74/17/66 93/166/66 32/122/66
f 115/190/67 119/195/67 58/146/67
f 69/162/68 94/169/68 33/135/68
f 11/93/69 72/23/69 62/22/69
f 118/210/70 111/194/70 55/147/70
f 93/166/71 70/15/71 9/97/71
f 61/154/72 73/21/72 12/92/72
f 116/196/73 96/187/73 40/139/73
f 36/126/74 97/172/74 80/171/74
f 65/18/75 67/20/75 6/212/75
f 39/149/76 100/197/76 117/213/76
f 79/6/77 98/170/77 37/125/77
f 10/95/78 66/19/78 61/215/78
f 120/199/79 101/189/79 45/141/79
f 75/167/80 99/174/80 38/137/80
f 9/97/81 70/15/81 74/17/81
f 44/216/82 105/244/82 116/198/82
f 98/173/83 71/242/83 15/128/83
f 12/98/84 73/16/84 66/217/84
f 119/195/85 106/191/85 50/143/85
f 102/177/86 85/176/86 24/129/86
f 87/14/87 68/13/87 7/100/87
f 49/218/88 110/200/88 120/219/88
f 23/113/89 84/157/89 103/175/89
f 67/20/90 88/12/90 27/101/90
f 80/171/91 104/178/91 43/206/91
f 64/2/92 89/11/92 28/103/92
f 42/130/93 103/175/93 76/158/93
f 27/220/94 88/223/94 65/10/94
f 46/133/95 107/180/95 86/164/95
f 77/9/96 63/8/96 2/106/96
f 90/159/97 108/179/97 47/132/97
f 62/221/98 78/7/98 17/107/98
f 24/129/99 85/176/99 109/181/99
f 15/109/100 71/4/100 79/6/100
f 47/132/101 108/179/101 81/160/101
f 78/5/102 72/23/102 11/93/102
