# Blender v2.82 (sub 7) OBJ File: 'ufo.blend'
# www.blender.org
mtllib ufo.mtl
o Body_Plane
v 0.000000 0.343800 -0.917961
v 0.000000 0.308067 -1.179491
v -0.000000 -0.022284 -0.812789
v 0.000000 0.000000 0.000000
v 0.000000 0.381966 -1.179491
v 0.000000 0.408313 -1.179491
v 0.000000 0.544102 -0.395193
v 0.000000 0.544102 0.000000
v -0.794977 0.343800 -0.458980
v -1.021469 0.308067 -0.589745
v -0.703896 -0.022284 -0.406395
v 0.000000 0.000000 0.000000
v -1.021469 0.381966 -0.589745
v -1.021469 0.408313 -0.589745
v -0.342247 0.544102 -0.197596
v 0.000000 0.544102 -0.000000
v -0.794977 0.343800 0.458980
v -1.021469 0.308067 0.589746
v -0.703896 -0.022284 0.406395
v 0.000000 0.000000 0.000000
v -1.021469 0.381966 0.589746
v -1.021469 0.408313 0.589746
v -0.342247 0.544102 0.197597
v -0.000000 0.544102 -0.000000
v 0.000000 0.343800 0.917961
v 0.000000 0.308067 1.179491
v 0.000000 -0.022284 0.812789
v 0.000000 0.000000 0.000000
v 0.000000 0.381966 1.179491
v 0.000000 0.408313 1.179491
v 0.000000 0.544102 0.395193
v -0.000000 0.544102 0.000000
v 0.794977 0.343800 0.458980
v 1.021469 0.308067 0.589745
v 0.703896 -0.022284 0.406395
v 0.000000 0.000000 0.000000
v 1.021469 0.381966 0.589745
v 1.021469 0.408313 0.589745
v 0.342247 0.544102 0.197596
v -0.000000 0.544102 0.000000
v 0.794977 0.343800 -0.458980
v 1.021469 0.308067 -0.589745
v 0.703896 -0.022284 -0.406395
v 0.000000 0.000000 0.000000
v 1.021469 0.381966 -0.589745
v 1.021469 0.408313 -0.589745
v 0.342247 0.544102 -0.197596
v 0.000000 0.544102 0.000000
vt 0.000000 0.308067
vt 0.166667 0.308067
vt 0.166667 0.343800
vt 0.000000 0.343800
vt 0.333333 0.308067
vt 0.333333 0.343800
vt 0.500000 0.308067
vt 0.500000 0.343800
vt 0.666667 0.308067
vt 0.666667 0.343800
vt 0.833333 0.308067
vt 0.833333 0.343800
vt 1.000000 0.308067
vt 1.000000 0.343800
vt 0.000000 -0.022284
vt 0.166667 -0.022284
vt 0.333333 -0.022284
vt 0.500000 -0.022284
vt 0.666667 -0.022284
vt 0.833333 -0.022284
vt 1.000000 -0.022284
vt 0.000000 0.000000
vt 0.166667 0.000000
vt 0.333333 0.000000
vt 0.500000 0.000000
vt 0.666667 0.000000
vt 0.833333 0.000000
vt 1.000000 0.000000
vt 0.166667 0.381966
vt 0.000000 0.381966
vt 0.333333 0.381966
vt 0.500000 0.381966
vt 0.666667 0.381966
vt 0.833333 0.381966
vt 1.000000 0.381966
vt 0.166667 0.408313
vt 0.000000 0.408313
vt 0.333333 0.408313
vt 0.500000 0.408313
vt 0.666667 0.408313
vt 0.833333 0.408313
vt 1.000000 0.408313
vt 0.166667 0.544102
vt 0.000000 0.544102
vt 0.333333 0.544102
vt 0.500000 0.544102
vt 0.666667 0.544102
vt 0.833333 0.544102
vt 1.000000 0.544102
vt 0.166667 0.544102
vt 0.000000 0.544102
vt 0.333333 0.544102
vt 0.500000 0.544102
vt 0.666667 0.544102
vt 0.833333 0.544102
vt 1.000000 0.544102
vn -0.0779 0.9878 -0.1350
vn -0.1558 0.9878 -0.0000
vn -0.0779 0.9878 0.1350
vn 0.0779 0.9878 0.1350
vn 0.1558 0.9878 0.0000
vn 0.0779 0.9878 -0.1350
vn -0.3605 -0.6930 -0.6243
vn -0.7209 -0.6930 0.0000
vn -0.3605 -0.6930 0.6243
vn 0.3605 -0.6930 0.6243
vn 0.7209 -0.6930 0.0000
vn 0.3605 -0.6930 -0.6243
vn 0.0158 -0.9995 0.0274
vn 0.0316 -0.9995 0.0000
vn 0.0158 -0.9995 -0.0274
vn -0.0158 -0.9995 -0.0274
vn -0.0316 -0.9995 0.0000
vn -0.0158 -0.9995 0.0274
vn -0.0831 -0.9861 -0.1439
vn -0.1662 -0.9861 0.0000
vn -0.0831 -0.9861 0.1439
vn 0.0831 -0.9861 0.1439
vn 0.1662 -0.9861 0.0000
vn 0.0831 -0.9861 -0.1439
vn -0.5000 0.0000 -0.8660
vn -1.0000 0.0000 0.0000
vn -0.5000 0.0000 0.8660
vn 0.5000 0.0000 0.8660
vn 1.0000 0.0000 0.0000
vn 0.5000 0.0000 -0.8660
vn -0.0980 0.9806 -0.1698
vn -0.1960 0.9806 -0.0000
vn -0.0980 0.9806 0.1698
vn 0.0980 0.9806 0.1698
vn 0.1960 0.9806 0.0000
vn 0.0980 0.9806 -0.1698
vn 0.0000 1.0000 -0.0000
usemtl None
s off
f 2/1/1 10/2/1 9/3/1 1/4/1
f 10/2/2 18/5/2 17/6/2 9/3/2
f 18/5/3 26/7/3 25/8/3 17/6/3
f 26/7/4 34/9/4 33/10/4 25/8/4
f 34/9/5 42/11/5 41/12/5 33/10/5
f 42/11/6 2/13/6 1/14/6 41/12/6
f 3/15/7 11/16/7 10/2/7 2/1/7
f 11/16/8 19/17/8 18/5/8 10/2/8
f 19/17/9 27/18/9 26/7/9 18/5/9
f 27/18/10 35/19/10 34/9/10 26/7/10
f 35/19/11 43/20/11 42/11/11 34/9/11
f 43/20/12 3/21/12 2/13/12 42/11/12
f 4/22/13 12/23/13 11/16/13 3/15/13
f 12/23/14 20/24/14 19/17/14 11/16/14
f 20/24/15 28/25/15 27/18/15 19/17/15
f 28/25/16 36/26/16 35/19/16 27/18/16
f 36/26/17 44/27/17 43/20/17 35/19/17
f 44/27/18 4/28/18 3/21/18 43/20/18
f 1/4/19 9/3/19 13/29/19 5/30/19
f 9/3/20 17/6/20 21/31/20 13/29/20
f 17/6/21 25/8/21 29/32/21 21/31/21
f 25/8/22 33/10/22 37/33/22 29/32/22
f 33/10/23 41/12/23 45/34/23 37/33/23
f 41/12/24 1/14/24 5/35/24 45/34/24
f 5/30/25 13/29/25 14/36/25 6/37/25
f 13/29/26 21/31/26 22/38/26 14/36/26
f 21/31/27 29/32/27 30/39/27 22/38/27
f 29/32/28 37/33/28 38/40/28 30/39/28
f 37/33/29 45/34/29 46/41/29 38/40/29
f 45/34/30 5/35/30 6/42/30 46/41/30
f 6/37/31 14/36/31 15/43/31 7/44/31
f 14/36/32 22/38/32 23/45/32 15/43/32
f 22/38/33 30/39/33 31/46/33 23/45/33
f 30/39/34 38/40/34 39/47/34 31/46/34
f 38/40/35 46/41/35 47/48/35 39/47/35
f 46/41/36 6/42/36 7/49/36 47/48/36
f 7/44/37 15/43/37 16/50/37 8/51/37
f 15/43/37 23/45/37 24/52/37 16/50/37
f 23/45/37 31/46/37 32/53/37 24/52/37
f 31/46/37 39/47/37 40/54/37 32/53/37
f 39/47/37 47/48/37 48/55/37 40/54/37
f 47/48/37 7/49/37 8/56/37 48/55/37
o Shards_Cone
v 0.649967 0.481497 0.056955
v 0.869613 0.437402 0.000000
v 0.649967 0.481497 -0.056955
v 0.430321 0.525593 0.000000
v 0.568010 0.562526 0.000000
v 0.374308 0.481497 -0.534410
v 0.434806 0.437402 -0.753107
v 0.275659 0.481497 -0.591365
v 0.215161 0.525593 -0.372669
v 0.284005 0.562526 -0.491911
v -0.275659 0.481497 -0.591365
v -0.434806 0.437402 -0.753107
v -0.374308 0.481497 -0.534410
v -0.215161 0.525593 -0.372669
v -0.284005 0.562526 -0.491911
v -0.649967 0.481497 -0.056955
v -0.869613 0.437402 -0.000000
v -0.649967 0.481497 0.056955
v -0.430321 0.525593 -0.000000
v -0.568010 0.562526 -0.000000
v -0.374308 0.481497 0.534410
v -0.434806 0.437402 0.753107
v -0.275659 0.481497 0.591365
v -0.215161 0.525593 0.372669
v -0.284005 0.562526 0.491911
v 0.275659 0.481497 0.591365
v 0.434806 0.437402 0.753107
v 0.374308 0.481497 0.534410
v 0.215161 0.525593 0.372669
v 0.284005 0.562526 0.491911
vt 0.250000 0.490000
vt 0.490000 0.250000
vt 0.250000 0.250000
vt 0.250000 0.010000
vt 0.010000 0.250000
vt 0.750000 0.490000
vt 0.510000 0.250000
vt 0.750000 0.010000
vt 0.990000 0.250000
vt 0.250000 0.490000
vt 0.490000 0.250000
vt 0.250000 0.250000
vt 0.250000 0.010000
vt 0.010000 0.250000
vt 0.750000 0.490000
vt 0.510000 0.250000
vt 0.750000 0.010000
vt 0.990000 0.250000
vt 0.250000 0.490000
vt 0.490000 0.250000
vt 0.250000 0.250000
vt 0.250000 0.010000
vt 0.010000 0.250000
vt 0.750000 0.490000
vt 0.510000 0.250000
vt 0.750000 0.010000
vt 0.990000 0.250000
vt 0.250000 0.490000
vt 0.490000 0.250000
vt 0.250000 0.250000
vt 0.250000 0.010000
vt 0.010000 0.250000
vt 0.750000 0.490000
vt 0.510000 0.250000
vt 0.750000 0.010000
vt 0.990000 0.250000
vt 0.250000 0.490000
vt 0.490000 0.250000
vt 0.250000 0.250000
vt 0.250000 0.010000
vt 0.010000 0.250000
vt 0.750000 0.490000
vt 0.510000 0.250000
vt 0.750000 0.010000
vt 0.990000 0.250000
vt 0.250000 0.490000
vt 0.490000 0.250000
vt 0.250000 0.250000
vt 0.250000 0.010000
vt 0.010000 0.250000
vt 0.750000 0.490000
vt 0.510000 0.250000
vt 0.750000 0.010000
vt 0.990000 0.250000
vn 0.3047 0.7344 0.6064
vn 0.3047 0.7344 -0.6064
vn -0.1287 0.4798 -0.8679
vn -0.1287 0.4798 0.8679
vn -0.1968 -0.9804 -0.0000
vn 0.6775 0.7344 0.0393
vn -0.3728 0.7344 -0.5671
vn -0.8159 0.4798 -0.3225
vn 0.6872 0.4798 0.5454
vn -0.0984 -0.9804 0.1705
vn 0.3728 0.7344 -0.5671
vn -0.6775 0.7344 0.0393
vn -0.6872 0.4798 0.5454
vn 0.8159 0.4798 -0.3225
vn 0.0984 -0.9804 0.1705
vn -0.3047 0.7344 -0.6064
vn -0.3047 0.7344 0.6064
vn 0.1287 0.4798 0.8679
vn 0.1287 0.4798 -0.8679
vn 0.1968 -0.9804 0.0000
vn -0.6775 0.7344 -0.0393
vn 0.3728 0.7344 0.5671
vn 0.8159 0.4798 0.3225
vn -0.6872 0.4798 -0.5454
vn 0.0984 -0.9804 -0.1705
vn -0.3728 0.7344 0.5671
vn 0.6775 0.7344 -0.0393
vn 0.6872 0.4798 -0.5454
vn -0.8159 0.4798 0.3225
vn -0.0984 -0.9804 -0.1705
usemtl None
s off
f 49/57/38 50/58/38 53/59/38
f 50/58/39 51/60/39 53/59/39
f 51/60/40 52/61/40 53/59/40
f 52/61/41 49/57/41 53/59/41
f 49/62/42 52/63/42 51/64/42 50/65/42
f 54/66/43 55/67/43 58/68/43
f 55/67/44 56/69/44 58/68/44
f 56/69/45 57/70/45 58/68/45
f 57/70/46 54/66/46 58/68/46
f 54/71/47 57/72/47 56/73/47 55/74/47
f 59/75/48 60/76/48 63/77/48
f 60/76/49 61/78/49 63/77/49
f 61/78/50 62/79/50 63/77/50
f 62/79/51 59/75/51 63/77/51
f 59/80/52 62/81/52 61/82/52 60/83/52
f 64/84/53 65/85/53 68/86/53
f 65/85/54 66/87/54 68/86/54
f 66/87/55 67/88/55 68/86/55
f 67/88/56 64/84/56 68/86/56
f 64/89/57 67/90/57 66/91/57 65/92/57
f 69/93/58 70/94/58 73/95/58
f 70/94/59 71/96/59 73/95/59
f 71/96/60 72/97/60 73/95/60
f 72/97/61 69/93/61 73/95/61
f 69/98/62 72/99/62 71/100/62 70/101/62
f 74/102/63 75/103/63 78/104/63
f 75/103/64 76/105/64 78/104/64
f 76/105/65 77/106/65 78/104/65
f 77/106/66 74/102/66 78/104/66
f 74/107/67 77/108/67 76/109/67 75/110/67
o Glass_Plane.001
v 0.226435 0.774633 0.000000
v 0.000000 0.538602 0.000000
v 0.321458 0.653139 0.000000
v 0.339840 0.538131 -0.000000
v 0.000000 0.839792 0.000000
v 0.113217 0.774633 -0.196098
v 0.000000 0.538602 0.000000
v 0.160729 0.653139 -0.278391
v 0.169920 0.538131 -0.294310
v 0.000000 0.839792 0.000000
v -0.113217 0.774633 -0.196098
v 0.000000 0.538602 0.000000
v -0.160729 0.653139 -0.278391
v -0.169920 0.538131 -0.294310
v 0.000000 0.839792 -0.000000
v -0.226435 0.774633 -0.000000
v 0.000000 0.538602 0.000000
v -0.321458 0.653139 0.000000
v -0.339840 0.538131 0.000000
v -0.000000 0.839792 -0.000000
v -0.113217 0.774633 0.196098
v 0.000000 0.538602 0.000000
v -0.160729 0.653139 0.278391
v -0.169920 0.538131 0.294310
v -0.000000 0.839792 -0.000000
v 0.113217 0.774633 0.196098
v 0.000000 0.538602 0.000000
v 0.160729 0.653139 0.278391
v 0.169920 0.538131 0.294310
v -0.000000 0.839792 0.000000
vt 0.000000 0.774633
vt 0.166667 0.774633
vt 0.166667 0.839792
vt 0.000000 0.839792
vt 0.333333 0.774633
vt 0.333333 0.839792
vt 0.500000 0.774633
vt 0.500000 0.839792
vt 0.666667 0.774633
vt 0.666667 0.839792
vt 0.833333 0.774633
vt 0.833333 0.839792
vt 1.000000 0.774633
vt 1.000000 0.839792
vt 0.000000 0.653139
vt 0.166667 0.653139
vt 0.333333 0.653139
vt 0.500000 0.653139
vt 0.666667 0.653139
vt 0.833333 0.653139
vt 1.000000 0.653139
vt 0.000000 0.538602
vt 0.166667 0.538602
vt 0.166667 0.538131
vt 0.000000 0.538131
vt 0.333333 0.538602
vt 0.333333 0.538131
vt 0.500000 0.538602
vt 0.500000 0.538131
vt 0.666667 0.538602
vt 0.666667 0.538131
vt 0.833333 0.538602
vt 0.833333 0.538131
vt 1.000000 0.538602
vt 1.000000 0.538131
vn 0.2731 0.9490 -0.1577
vn 0.0000 0.9490 -0.3153
vn -0.2731 0.9490 -0.1577
vn -0.2731 0.9490 0.1577
vn -0.0000 0.9490 0.3153
vn 0.2731 0.9490 0.1577
vn 0.7170 0.5608 -0.4140
vn 0.0000 0.5608 -0.8279
vn -0.7170 0.5608 -0.4140
vn -0.7170 0.5608 0.4140
vn -0.0000 0.5608 0.8279
vn 0.7170 0.5608 0.4140
vn -0.0014 -1.0000 0.0008
vn 0.0000 -1.0000 0.0016
vn 0.0014 -1.0000 0.0008
vn 0.0014 -1.0000 -0.0008
vn 0.0000 -1.0000 -0.0016
vn -0.0014 -1.0000 -0.0008
vn 0.8578 0.1371 -0.4953
vn 0.0000 0.1371 -0.9906
vn -0.8578 0.1371 -0.4953
vn -0.8578 0.1371 0.4953
vn 0.0000 0.1371 0.9906
vn 0.8578 0.1371 0.4953
usemtl None
s off
f 79/111/68 84/112/68 88/113/68 83/114/68
f 84/112/69 89/115/69 93/116/69 88/113/69
f 89/115/70 94/117/70 98/118/70 93/116/70
f 94/117/71 99/119/71 103/120/71 98/118/71
f 99/119/72 104/121/72 108/122/72 103/120/72
f 104/121/73 79/123/73 83/124/73 108/122/73
f 81/125/74 86/126/74 84/112/74 79/111/74
f 86/126/75 91/127/75 89/115/75 84/112/75
f 91/127/76 96/128/76 94/117/76 89/115/76
f 96/128/77 101/129/77 99/119/77 94/117/77
f 101/129/78 106/130/78 104/121/78 99/119/78
f 106/130/79 81/131/79 79/123/79 104/121/79
f 80/132/80 85/133/80 87/134/80 82/135/80
f 85/133/81 90/136/81 92/137/81 87/134/81
f 90/136/82 95/138/82 97/139/82 92/137/82
f 95/138/83 100/140/83 102/141/83 97/139/83
f 100/140/84 105/142/84 107/143/84 102/141/84
f 105/142/85 80/144/85 82/145/85 107/143/85
f 82/135/86 87/134/86 86/126/86 81/125/86
f 87/134/87 92/137/87 91/127/87 86/126/87
f 92/137/88 97/139/88 96/128/88 91/127/88
f 97/139/89 102/141/89 101/129/89 96/128/89
f 102/141/90 107/143/90 106/130/90 101/129/90
f 107/143/91 82/145/91 81/131/91 106/130/91
